<svg xmlns="http://www.w3.org/2000/svg" viewBox="0 0 69.78 28.18"><defs><style>.cls-1{fill:#fff;}.cls-1,.cls-2,.cls-3{stroke:#000;}.cls-1,.cls-2{stroke-width:2.08px;}.cls-2,.cls-3{fill:none;}.cls-3{stroke-miterlimit:10;}</style></defs><g id="Layer_2" data-name="Layer 2"><g id="Layer_1-2" data-name="Layer 1"><path id="Rectangle-17" class="cls-1" d="M14,1.14a13,13,0,0,0,0,26h53.4a1.32,1.32,0,0,0,1.3-1.3v-2a1.83,1.83,0,0,0-1.6-1.8c-6.1-.4-9.3-3.1-9.3-7.9s3.2-7.4,9.3-7.9a1.76,1.76,0,0,0,1.6-1.8V2.34A1.32,1.32,0,0,0,67.44,1H14Z"/><path id="Rectangle-19" class="cls-2" d="M68.14,22.54a.43.43,0,0,1-.4.4H13.84a8.8,8.8,0,0,1,0-17.6h53.9a.43.43,0,0,1,.4.4h0"/><path id="Rectangle-18" class="cls-3" d="M12.94,10.44h44.5a.9.9,0,0,1,.9.9h0a.9.9,0,0,1-.9.9H12.94a.9.9,0,0,1-.9-.9h0A1.06,1.06,0,0,1,12.94,10.44Z"/><path id="Rectangle-18-2" class="cls-3" d="M12.94,15.94h44.5a.9.9,0,0,1,.9.9h0a.9.9,0,0,1-.9.9H12.94a.9.9,0,0,1-.9-.9h0A1.06,1.06,0,0,1,12.94,15.94Z"/></g></g></svg>