<svg xmlns="http://www.w3.org/2000/svg" viewBox="0 0 77.9 56.92"><defs><style>.cls-1{fill:#fff;}</style></defs><g id="Layer_2" data-name="Layer 2"><g id="Layer_1-2" data-name="Layer 1"><path d="M0,55.9V9.8c.3-.8.8-1,1.7-1,1.6.1,3.2,0,4.8,0V4a1.06,1.06,0,0,1,1-1.2c2.2-.1,4.4-.3,6.6-.3,3,0,6,.2,9,.2.9,0,1.2.4,1.2,1.3V8.8c1.4,0,2.7-.1,4.1,0,.8,0,1.2-.2,1.4-1,.6-2.2,1.3-4.3,1.9-6.4A1.69,1.69,0,0,1,33.6,0H50c.9,0,1.5.3,1.7,1.2.6,2.3,1.4,4.5,2,6.8a1,1,0,0,0,1.2.9c1.3-.1,2.6,0,3.8,0h3.7V5.5c0-.9.4-1.3,1.3-1.3H73.9c.9,0,1.3.4,1.3,1.3V8.9h1.2c1.2-.1,1.5.4,1.5,1.5,0,15-.1,30-.1,45,0,1.2-.5,1.5-1.6,1.5H1.7A1.4,1.4,0,0,1,0,55.9ZM76,10.7H2.3V24.2a4.33,4.33,0,0,1,.5.1H23.6a2.13,2.13,0,0,0,1.2-.7,18.31,18.31,0,0,1,30.4,0,1.56,1.56,0,0,0,1.5.8H74.9a4.48,4.48,0,0,0,1.1-.1ZM33.3,51.2A18.78,18.78,0,0,1,22.9,40.9a18.11,18.11,0,0,1,.2-14.6H2.3V51.2Zm42.6,0V26.3H56.7c3.6,11.3.2,19.5-10.5,24.9Zm-36-1A16.4,16.4,0,1,0,23.5,33.8,16.41,16.41,0,0,0,39.9,50.2ZM2.2,54.9H75.9V53.1H2.2Zm33.1-46V4.5c0-.9.3-1.4,1.3-1.4h10c1,0,1.4.4,1.4,1.5V8.9h3.9c-.7-2.4-1.4-4.6-2.1-6.9H34.2c-.3,0-.8.3-.8.5-.7,2.1-1.3,4.2-1.9,6.3C32.8,8.9,33.9,8.9,35.3,8.9Zm2-.4h8.8V5H37.3ZM73.2,6.1H64.3V8.8h8.9Zm-58.8-1V8.4h1.8V5.1Zm8,3.7V4.7c-.5,0-.9.1-1.3.1v4Zm-10-.4V5.1H11.3V8.4Zm5.9.1c.4-.1.8-.2.8-.3v-3c0-.1-.5-.1-.8-.2ZM9.5,6.7V5.1c0-.2-.3-.4-.5-.5-.2.2-.4.4-.4.6v3c0,.2.3.4.5.5.2-.2.4-.4.4-.6Z"/><path class="cls-1" d="M76,10.7V24.2c-.4,0-.8.1-1.1.1H56.7a1.56,1.56,0,0,1-1.5-.8,18.31,18.31,0,0,0-30.4,0,1.52,1.52,0,0,1-1.2.7H2.8a.9.9,0,0,1-.5-.1V10.6C26.8,10.7,51.3,10.7,76,10.7Zm-8.7,2.4H61.5c-.9,0-1.3.3-1.3,1.3v6.7c0,.9.4,1.3,1.3,1.3H72.9c.9,0,1.2-.4,1.2-1.2V14.5c0-1-.4-1.3-1.4-1.3C71,13.1,69.2,13.1,67.3,13.1ZM24.6,16.3A3.27,3.27,0,0,0,21.3,13a3.35,3.35,0,1,0,3.3,3.3Z"/><path class="cls-1" d="M33.3,51.2H2.2V26.3H23a18.52,18.52,0,0,0-.2,14.6A20,20,0,0,0,33.3,51.2Z"/><path class="cls-1" d="M75.9,51.2H46.2c10.7-5.4,14.1-13.6,10.5-24.9H75.9Z"/><path class="cls-1" d="M39.9,50.2A16.4,16.4,0,1,1,56.3,33.8,16.41,16.41,0,0,1,39.9,50.2ZM26.5,33.7A13.66,13.66,0,0,0,39.9,47.4,13.58,13.58,0,0,0,53.2,33.7,13.79,13.79,0,0,0,39.8,20C32.6,20,26.5,26.3,26.5,33.7Z"/><path class="cls-1" d="M2.2,54.9V53.1H75.9v1.8Z"/><path class="cls-1" d="M35.3,8.9H31.4c.6-2.2,1.3-4.3,1.9-6.3a1,1,0,0,1,.8-.5H49.7c.7,2.3,1.4,4.5,2.1,6.9H47.9V4.7c0-1-.4-1.5-1.4-1.5h-10c-1,0-1.4.5-1.3,1.4A29.76,29.76,0,0,1,35.3,8.9Z"/><path class="cls-1" d="M37.3,8.5V5h8.8V8.5Z"/><path class="cls-1" d="M73.2,6.1V8.8H64.3V6.1Z"/><path class="cls-1" d="M14.4,5.1h1.8V8.4H14.4Z"/><path class="cls-1" d="M22.4,8.8H21.1v-4a6.15,6.15,0,0,0,1.3-.1Z"/><path class="cls-1" d="M12.4,8.4H11.3V5.1h1.1Z"/><path class="cls-1" d="M18.3,8.5V5.1c.3.1.8.1.8.2a15,15,0,0,1,0,3S18.6,8.4,18.3,8.5Z"/><path class="cls-1" d="M9.5,6.7V8.1c0,.2-.3.4-.4.6-.2-.2-.5-.4-.5-.5v-3c0-.2.3-.4.4-.6.2.2.4.3.5.5Z"/><path d="M67.3,13.1h5.5c1,0,1.4.3,1.4,1.3v6.7c0,.9-.4,1.2-1.2,1.2H61.6c-.9,0-1.3-.4-1.3-1.3V14.3c0-.9.4-1.3,1.3-1.3C63.5,13.1,65.4,13.1,67.3,13.1Zm5,1.9H62.2v5.4H72.3Z"/><path d="M24.6,16.3a3.29,3.29,0,0,1-3.4,3.3,3.35,3.35,0,0,1,0-6.7A3.5,3.5,0,0,1,24.6,16.3Zm-1.9-.4c-.4-.2-1-1-1.4-.9-.6.1-1.4.8-1.4,1.4a1.36,1.36,0,0,0,1.4,1.4C22.2,17.7,22.6,17.2,22.7,15.9Z"/><path d="M26.5,33.7A13.8,13.8,0,0,1,39.8,19.9,13.79,13.79,0,0,1,53.2,33.6,13.64,13.64,0,0,1,39.9,47.3C32.6,47.4,26.6,41.2,26.5,33.7ZM39.9,21.9A11.9,11.9,0,1,0,51.7,33.8,11.8,11.8,0,0,0,39.9,21.9Z"/><path class="cls-1" d="M72.3,15v5.4H62.2V15Z"/><path class="cls-1" d="M22.7,15.9c-.1,1.3-.5,1.8-1.4,1.9s-1.6-.6-1.4-1.4A2.73,2.73,0,0,1,21.3,15C21.7,14.9,22.3,15.7,22.7,15.9Z"/><path class="cls-1" d="M39.9,21.9A11.85,11.85,0,1,1,28,33.7,11.82,11.82,0,0,1,39.9,21.9Zm.3,3.8c4.2,1.7,6.3,4.7,6.2,8.5a6.57,6.57,0,0,1-5.1,5.7c-4.8,1-7.6-1.6-9.4-5.8-.8,3.1,1,6.6,4,8.3a9.32,9.32,0,0,0,11.2-1.9c2.9-3.1,3.2-7.6.7-11.6A7.12,7.12,0,0,0,40.2,25.7Z"/><path d="M40.2,25.7c2.6-.8,6.1.7,7.6,3.2,2.5,4,2.2,8.6-.7,11.6a9.32,9.32,0,0,1-11.2,1.9,7.63,7.63,0,0,1-4-8.3c1.8,4.2,4.6,6.8,9.4,5.8a6.68,6.68,0,0,0,5.1-5.7C46.6,30.4,44.4,27.4,40.2,25.7Z"/></g></g></svg>