<svg xmlns="http://www.w3.org/2000/svg" viewBox="0 0 181.38 116.78"><defs><style>.cls-1{fill:#fff;stroke:#000;stroke-width:2.08px;}</style></defs><g id="Layer_2" data-name="Layer 2"><g id="Layer_1-2" data-name="Layer 1"><path id="Case-6" class="cls-1" d="M17,1h147.3a5.12,5.12,0,0,1,5.1,5.1v95.5a5.12,5.12,0,0,1-5.1,5.1H16.94a5.12,5.12,0,0,1-5.1-5.1V6.14A5.28,5.28,0,0,1,17,1Z"/><path id="Keyboard-2" class="cls-1" d="M1,106.94v4.3a4.48,4.48,0,0,0,4.5,4.5h170.3a4.48,4.48,0,0,0,4.5-4.5h0v-4.3a.22.22,0,0,0-.2-.2H1.24a.22.22,0,0,0-.2.2Z"/><path id="Notch" class="cls-1" d="M102.44,106.84H78.54a6.5,6.5,0,0,0,6.2,4.2h11.5A6.28,6.28,0,0,0,102.44,106.84Z"/><path id="Screen" class="cls-1" d="M20.64,11h140a1.75,1.75,0,0,1,1.7,1.7v82.5a1.75,1.75,0,0,1-1.7,1.7h-140a1.75,1.75,0,0,1-1.7-1.7V12.74A1.69,1.69,0,0,1,20.64,11Z"/></g></g></svg>