<svg xmlns="http://www.w3.org/2000/svg" viewBox="0 0 270.28 231.38"><defs><style>.cls-1{fill:#fff;stroke:#000;stroke-width:2.08px;}</style></defs><g id="Layer_2" data-name="Layer 2"><g id="Layer_1-2" data-name="Layer 1"><path id="Case" class="cls-1" d="M1.14,8.34A7.26,7.26,0,0,1,8.34,1h253.6a7.34,7.34,0,0,1,7.3,7.3h0v173.6a7.28,7.28,0,0,1-7.3,7.3H8.34a7.28,7.28,0,0,1-7.3-7.3H1Z"/><path id="Case-2" class="cls-1" d="M17.54,20.34a3.12,3.12,0,0,1,3.1-3.1h228.8a3.12,3.12,0,0,1,3.1,3.1h0v129.3a3.12,3.12,0,0,1-3.1,3.1H20.64a3.12,3.12,0,0,1-3.1-3.1h0Z"/><path id="Case-3" class="cls-1" d="M116.14,189.24h38.4l2.6,33.6h-43.6Z"/><path id="Keyboard" class="cls-1" d="M97.44,230v-3.5a3.8,3.8,0,0,1,3.8-3.8h68.2a3.8,3.8,0,0,1,3.8,3.8V230a.32.32,0,0,1-.3.3H97.74a.27.27,0,0,1-.3-.3Z"/><circle id="Oval-6" class="cls-1" cx="135.34" cy="172.44" r="4.8"/></g></g></svg>