<svg xmlns="http://www.w3.org/2000/svg" viewBox="0 0 55.88 50.18"><defs><style>.cls-1,.cls-3{fill:#fff;}.cls-1,.cls-2,.cls-3,.cls-4{stroke:#000;stroke-width:2.08px;}.cls-2,.cls-4{fill:none;}.cls-3{fill-rule:evenodd;}.cls-4{stroke-linecap:square;}</style></defs><g id="Layer_2" data-name="Layer 2"><g id="Layer_1-2" data-name="Layer 1"><circle id="Oval-8" class="cls-1" cx="40.94" cy="26.94" r="13.9"/><circle id="Oval-8-2" class="cls-2" cx="40.94" cy="26.94" r="8.1"/><circle id="Oval-8-3" class="cls-1" cx="22.34" cy="5.74" r="4.7"/><path id="Rectangle-16" class="cls-3" d="M1.94,4.64a.9.9,0,0,0-.9.9v39a4.61,4.61,0,0,0,4.7,4.6h32a4.67,4.67,0,0,0,4.7-4.6h0v-39a.9.9,0,0,0-.9-.9Z"/><path id="Rectangle-16-2" class="cls-1" d="M23.54,17.14H30a2.8,2.8,0,0,1,2.8,2.8v9.3A2.8,2.8,0,0,1,30,32h-6.5a2.8,2.8,0,0,1-2.8-2.8v-9.3A2.8,2.8,0,0,1,23.54,17.14Z"/><line id="Line-2-2" class="cls-4" x1="26.64" y1="4.94" x2="26.64" y2="15.54"/></g></g></svg>