<svg xmlns="http://www.w3.org/2000/svg" viewBox="0 0 53.58 102.98"><defs><style>.cls-1,.cls-2{fill:#fff;stroke:#000;}.cls-1{stroke-width:2.08px;}.cls-2{stroke-miterlimit:10;}</style></defs><g id="Layer_2" data-name="Layer 2"><g id="Layer_1-2" data-name="Layer 1"><path id="Case-4" class="cls-1" d="M7.24,1h39.1a6.23,6.23,0,0,1,6.2,6.2v88.5a6.23,6.23,0,0,1-6.2,6.2H7.24A6.23,6.23,0,0,1,1,95.74V7.24A6.17,6.17,0,0,1,7.24,1Z"/><path id="Case-5" class="cls-1" d="M1,12.14h51.5v74.8H1Z"/><path id="Rectangle-11" class="cls-2" d="M15.54,5.44h22.7a1,1,0,0,1,1,1h0a1,1,0,0,1-1,1H15.54a1,1,0,0,1-1-1h0A1.08,1.08,0,0,1,15.54,5.44Z"/><path id="Rectangle-11-2" class="cls-2" d="M26.84,91.24h0a3,3,0,0,1,3,3h0a3,3,0,0,1-3,3h0a3,3,0,0,1-3-3h0A3.15,3.15,0,0,1,26.84,91.24Z"/><circle id="Oval-6-2" class="cls-1" cx="15.54" cy="49.44" r="3.9"/><path id="Rectangle-11-3" class="cls-2" d="M25.74,42.64h16.1a1,1,0,0,1,1,1h0a1,1,0,0,1-1,1H25.74a1,1,0,0,1-1-1h0A1,1,0,0,1,25.74,42.64Z"/><path id="Rectangle-11-4" class="cls-2" d="M25.74,48.34h10.9a1,1,0,0,1,1,1h0a1,1,0,0,1-1,1H25.74a1,1,0,0,1-1-1h0A1,1,0,0,1,25.74,48.34Z"/><path id="Rectangle-11-5" class="cls-2" d="M25.74,54h5.7a1,1,0,0,1,1,1h0a1,1,0,0,1-1,1h-5.7a1,1,0,0,1-1-1h0A1,1,0,0,1,25.74,54Z"/></g></g></svg>